<svg width="56" height="56" viewBox="0 0 56 56" fill="none" xmlns="http://www.w3.org/2000/svg">
<path d="M50.8841 24.831C50.7541 24.831 50.6326 24.7671 50.5647 24.6563V24.6563C50.1219 24.0331 49.7544 23.3594 49.4713 22.6494C49.2707 21.8734 49.1626 21.0763 49.1488 20.275C49.0547 18.8191 48.9516 17.1703 47.9929 15.8531C47.0342 14.5359 45.4798 13.9087 44.1132 13.3713C43.3573 13.1185 42.6351 12.7738 41.9629 12.3454C41.3629 11.8482 40.8245 11.2813 40.3591 10.6563C39.4407 9.5185 38.3788 8.22818 36.7929 7.7085C35.207 7.18881 33.6791 7.6235 32.277 7.98163L32.2773 7.98194C31.4942 8.22538 30.6851 8.37569 29.867 8.42976C29.0501 8.37569 28.2426 8.22538 27.4614 7.98194C26.0589 7.6235 24.491 7.21569 22.9454 7.7085C21.3998 8.20132 20.2976 9.50034 19.3614 10.6563L19.0745 11.0013C15.8214 9.59382 12.3151 8.8663 8.77081 8.86446V8.86446C8.05954 8.87704 7.48442 9.45708 7.46708 10.1682V10.1682C7.46708 10.4998 7.37739 16.7582 10.4105 22.0226C10.9461 22.9633 11.5799 23.8448 12.3012 24.6523V24.6523C12.36 24.7182 12.3133 24.8226 12.2249 24.8226H8.7843C8.05683 24.8226 7.4671 25.4124 7.4671 26.1398V26.1398C7.4671 26.8026 7.49835 27.4523 7.55679 28.0885C7.66835 29.3335 7.89179 30.5661 8.22429 31.771C8.74336 33.6829 9.52589 35.5132 10.5493 37.2097C11.9518 39.5313 13.7651 41.5745 15.8982 43.2407C16.4092 43.6398 16.7274 44.2433 16.7274 44.8917V50.2803C16.7274 51.3849 17.6228 52.2803 18.7274 52.2803H41.0114C42.116 52.2803 43.0114 51.3849 43.0114 50.2803V44.8909C43.0114 44.2429 43.3292 43.6398 43.8397 43.2407C45.9719 41.5737 47.7854 39.5307 49.1892 37.2097C50.2058 35.5219 50.9852 33.7025 51.5055 31.8022C51.8402 30.5869 52.0652 29.3438 52.1774 28.0885C52.2355 27.4478 52.267 26.7981 52.267 26.1441V25.8753C52.267 25.2987 51.7997 24.8312 51.223 24.8311L50.8841 24.831Z" fill="#4BBAB2"/>
<path d="M47.1507 21.0966C47.0207 21.0966 46.8992 21.0327 46.8313 20.9219V20.9219C46.3885 20.2988 46.021 19.625 45.7379 18.915C45.5373 18.1391 45.4292 17.3419 45.4154 16.5406C45.3213 15.0847 45.2182 13.4359 44.2595 12.1188C43.3008 10.8016 41.7464 10.1744 40.3798 9.63692C39.6239 9.38411 38.9017 9.03942 38.2295 8.611C37.6295 8.11382 37.0911 7.54692 36.6257 6.92196C35.7073 5.78413 34.6454 4.49381 33.0595 3.97413C31.4736 3.45444 29.9457 3.88913 28.5436 4.24725L28.5439 4.24757C27.7608 4.49101 26.9517 4.64132 26.1336 4.69538C25.3167 4.64132 24.5092 4.49101 23.728 4.24757C22.3255 3.88913 20.7576 3.48132 19.212 3.97413C17.6664 4.46694 16.5642 5.76597 15.628 6.92197L15.3411 7.26697C12.088 5.85945 8.58173 5.13193 5.03741 5.13009V5.13009C4.32614 5.14266 3.75102 5.7227 3.73368 6.43386V6.43386C3.73368 6.76542 3.64399 13.0239 6.67712 18.2883C7.21274 19.2289 7.84648 20.1104 8.56776 20.9179V20.9179C8.6266 20.9838 8.57986 21.0883 8.49154 21.0883H5.0509C4.32343 21.0883 3.7337 21.678 3.7337 22.4055V22.4055C3.7337 23.0683 3.76495 23.7179 3.82339 24.3542C3.93495 25.5991 4.15839 26.8317 4.49089 28.0366C5.00996 29.9485 5.79249 31.7788 6.81585 33.4754C8.21842 35.797 10.0317 37.8401 12.1648 39.5063C12.6758 39.9055 12.994 40.5089 12.994 41.1573V46.5459C12.994 47.6505 13.8894 48.5459 14.994 48.5459H37.278C38.3826 48.5459 39.278 47.6505 39.278 46.5459V41.1565C39.278 40.5085 39.5958 39.9054 40.1063 39.5063C42.2385 37.8393 44.052 35.7964 45.4559 33.4754C46.4724 31.7875 47.2518 29.9682 47.7721 28.0678C48.1068 26.8526 48.3318 25.6095 48.444 24.3541C48.5021 23.7135 48.5336 23.0638 48.5336 22.4097V22.1409C48.5336 21.5643 48.0663 21.0968 47.4896 21.0967L47.1507 21.0966ZM20.0408 6.53257C20.273 6.46195 20.5149 6.42851 20.7577 6.43413C21.5405 6.48163 22.3149 6.62164 23.0649 6.85069C24.0624 7.14913 25.0933 7.32225 26.1336 7.36569C27.177 7.32288 28.2108 7.14976 29.2114 6.85069C30.3583 6.55507 31.4514 6.27725 32.2265 6.53256C33.0015 6.78788 33.7946 7.69288 34.5649 8.62912C35.1718 9.4332 35.8777 10.1573 36.6662 10.7842C37.5146 11.3467 38.4314 11.7986 39.3946 12.1282C40.5146 12.5764 41.5764 12.9886 42.0827 13.6917C42.589 14.3951 42.6562 15.5061 42.7324 16.7023C42.7527 17.7282 42.903 18.7473 43.1799 19.7351V19.7351C43.3906 20.358 42.9662 21.0792 42.3086 21.0792H26.0864C24.9661 21.0792 24.0783 20.156 23.9771 19.0403C23.6951 15.931 22.5929 13.2763 20.6857 11.1064C19.8226 10.132 18.8329 9.27768 17.7426 8.5664C18.5176 7.66576 19.2164 6.80137 20.0408 6.53257ZM11.5288 20.0438C10.7179 19.3728 10.0204 18.5756 9.46353 17.6828C8.56881 16.2972 7.88193 14.7878 7.42513 13.2028C6.91669 11.4638 6.59826 9.67497 6.47546 7.86721C8.68418 8.01877 10.8623 8.47096 12.9489 9.21129C13.9633 9.57442 14.9389 10.0382 15.8611 10.5957C16.9104 11.2191 17.8576 12.0004 18.6698 12.9116C20.1489 14.5943 21.0239 16.6845 21.2814 19.1548C21.3942 20.2368 20.4882 21.11 19.4003 21.11H14.3558C13.3205 21.0891 12.3239 20.7128 11.5333 20.0438H11.5288ZM36.5964 44.3526C36.5927 45.217 35.8909 45.9158 35.0264 45.9158H17.253C16.3852 45.9158 15.6816 45.2122 15.6816 44.3444V44.3444C15.6816 43.1668 16.9367 42.397 18.0373 42.8158C18.241 42.8933 18.4459 42.9679 18.6519 43.0395C19.7875 43.4323 20.9532 43.732 22.1372 43.9354C23.4563 44.172 24.7935 44.2904 26.1335 44.2895C27.4853 44.2914 28.8347 44.1729 30.1653 43.9354C31.3447 43.7298 32.5059 43.4301 33.6375 43.0395C33.8408 42.9686 34.043 42.8949 34.2442 42.8183C35.3461 42.3989 36.6016 43.1736 36.5964 44.3526V44.3526ZM45.724 24.5462C45.6328 25.3874 45.4831 26.2212 45.2762 27.0414C44.7706 29.0314 43.9444 30.9258 42.83 32.6505C40.4024 36.3626 36.8065 39.1598 32.6108 40.5995C28.4152 42.0392 23.8596 42.0392 19.6644 40.5995C15.4688 39.1598 11.8728 36.3626 9.44516 32.6505C8.39172 31.0198 7.59548 29.2367 7.0842 27.3639C7.05732 27.2699 7.03482 27.1714 7.01264 27.0771C6.80608 26.2536 6.65639 25.417 6.56451 24.573C6.53326 24.2952 6.50638 24.022 6.48826 23.7442H45.8003C45.7824 23.9996 45.7556 24.2775 45.724 24.5462Z" fill="#0F0F0F"/>
<path d="M26.2097 12.3886C26.2097 11.5635 26.8786 10.8945 27.7038 10.8945V10.8945C28.529 10.8945 29.1979 11.5635 29.1979 12.3886V12.3886C29.1979 13.2138 28.529 13.8827 27.7038 13.8827V13.8827C26.8786 13.8827 26.2097 13.2138 26.2097 12.3886V12.3886Z" fill="#0F0F0F"/>
<path d="M34.4265 16.5722C34.4265 15.7471 35.0954 15.0781 35.9206 15.0781V15.0781C36.7458 15.0781 37.4147 15.7471 37.4147 16.5722V16.5722C37.4147 17.3974 36.7458 18.0663 35.9206 18.0663V18.0663C35.0954 18.0663 34.4265 17.3974 34.4265 16.5722V16.5722Z" fill="#0F0F0F"/>
</svg>
