<svg width="56" height="56" viewBox="0 0 56 56" fill="none" xmlns="http://www.w3.org/2000/svg">
<path fill-rule="evenodd" clip-rule="evenodd" d="M44.86 18.1694C45.6092 17.5849 46.0923 16.6708 46.0923 15.6454C46.0923 13.8844 44.6695 12.4523 42.8927 12.4523L42.0775 12.4871L39.4583 7.80134C39.3432 7.59611 39.1261 7.46875 38.891 7.46875H20.4606C20.2141 7.46875 19.9898 7.60741 19.8802 7.82714L17.5629 12.4514H16.6135C15.9326 12.4514 15.2834 12.6657 14.7352 13.0703C13.9238 13.6697 13.4402 14.6323 13.4402 15.6449C13.4402 16.5016 13.7726 17.3058 14.3779 17.9111C14.5907 18.1234 14.8283 18.3019 15.0837 18.4437L20.3673 51.5662C20.4249 51.9275 20.735 52.1938 21.1008 52.1953L38.6169 52.2662C38.9836 52.2677 39.2967 52.0026 39.3562 51.6407L44.86 18.1694Z" fill="#8036E0"/>
<mask id="path-2-outside-1_2813_39659" maskUnits="userSpaceOnUse" x="8.70679" y="2.73438" width="35" height="47" fill="black">
<rect fill="white" x="8.70679" y="2.73438" width="35" height="47"/>
<path d="M24.7902 10.0148H27.6004C27.9596 10.0148 28.25 9.72353 28.25 9.36517C28.25 9.00635 27.9596 8.7155 27.6004 8.7155H24.7902C24.4309 8.7155 24.1405 9.00682 24.1405 9.36517C24.1405 9.72399 24.4309 10.0148 24.7902 10.0148Z"/>
<path d="M31.6055 10.0148H30.7438C30.3846 10.0148 30.0942 9.72399 30.0942 9.36517C30.0942 9.00682 30.3846 8.7155 30.7438 8.7155H31.6055C31.9648 8.7155 32.2552 9.00635 32.2552 9.36517C32.2552 9.72353 31.9648 10.0148 31.6055 10.0148Z"/>
<path fill-rule="evenodd" clip-rule="evenodd" d="M41.1273 14.4349C41.8765 13.8504 42.3597 12.9364 42.3597 11.9109C42.3597 10.15 40.9366 8.71788 39.1598 8.71788H39.1594L38.3443 8.75276L35.7257 4.06691C35.6107 3.86169 35.3936 3.73438 35.1585 3.73438H16.7281C16.4816 3.73438 16.2569 3.87301 16.1472 4.09273L13.83 8.71699H12.8804C12.1994 8.71699 11.5507 8.93128 11.0025 9.33585C10.1911 9.93524 9.70679 10.8979 9.70679 11.9105C9.70679 12.7673 10.0393 13.5714 10.6446 14.1767C10.8574 14.389 11.0948 14.5674 11.3502 14.7093L16.6336 47.8318C16.6912 48.193 17.0021 48.4594 17.3679 48.4608L34.8835 48.5318C35.2503 48.5333 35.5638 48.2682 35.6233 47.9063L41.1273 14.4349ZM39.2136 13.8044C40.234 13.7891 41.0591 12.9456 41.0591 11.9109C41.0591 10.8667 40.2187 10.0163 39.1853 10.0163L37.9988 10.0684C37.7533 10.0801 37.5245 9.95103 37.404 9.73628L34.7754 5.03315H17.1278L15.2825 8.7155H21.5862C21.9455 8.7155 22.2359 9.00635 22.2359 9.36517C22.2359 9.72353 21.9455 10.0148 21.5862 10.0148H14.2644C14.2529 10.0155 14.2413 10.0158 14.2297 10.0158L12.8795 10.0163C12.4795 10.0163 12.0971 10.1423 11.7746 10.3806C11.2853 10.7417 11.0048 11.2998 11.0048 11.9109C11.0048 12.4206 11.2028 12.899 11.5616 13.2578C11.9083 13.6031 12.3656 13.7972 12.8502 13.8044H39.2136ZM17.7412 46.5365C17.7988 46.8978 18.1097 47.1641 18.4755 47.1656L33.7806 47.2279C34.1473 47.2294 34.4609 46.9643 34.5204 46.6024L39.5574 15.9717C39.6322 15.5171 39.2814 15.1039 38.8206 15.1039H13.6029C13.1436 15.1039 12.7932 15.5146 12.8655 15.9682L17.7412 46.5365Z"/>
</mask>
<path d="M24.7902 10.0148H27.6004C27.9596 10.0148 28.25 9.72353 28.25 9.36517C28.25 9.00635 27.9596 8.7155 27.6004 8.7155H24.7902C24.4309 8.7155 24.1405 9.00682 24.1405 9.36517C24.1405 9.72399 24.4309 10.0148 24.7902 10.0148Z" fill="#0F0F0F"/>
<path d="M31.6055 10.0148H30.7438C30.3846 10.0148 30.0942 9.72399 30.0942 9.36517C30.0942 9.00682 30.3846 8.7155 30.7438 8.7155H31.6055C31.9648 8.7155 32.2552 9.00635 32.2552 9.36517C32.2552 9.72353 31.9648 10.0148 31.6055 10.0148Z" fill="#0F0F0F"/>
<path fill-rule="evenodd" clip-rule="evenodd" d="M41.1273 14.4349C41.8765 13.8504 42.3597 12.9364 42.3597 11.9109C42.3597 10.15 40.9366 8.71788 39.1598 8.71788H39.1594L38.3443 8.75276L35.7257 4.06691C35.6107 3.86169 35.3936 3.73438 35.1585 3.73438H16.7281C16.4816 3.73438 16.2569 3.87301 16.1472 4.09273L13.83 8.71699H12.8804C12.1994 8.71699 11.5507 8.93128 11.0025 9.33585C10.1911 9.93524 9.70679 10.8979 9.70679 11.9105C9.70679 12.7673 10.0393 13.5714 10.6446 14.1767C10.8574 14.389 11.0948 14.5674 11.3502 14.7093L16.6336 47.8318C16.6912 48.193 17.0021 48.4594 17.3679 48.4608L34.8835 48.5318C35.2503 48.5333 35.5638 48.2682 35.6233 47.9063L41.1273 14.4349ZM39.2136 13.8044C40.234 13.7891 41.0591 12.9456 41.0591 11.9109C41.0591 10.8667 40.2187 10.0163 39.1853 10.0163L37.9988 10.0684C37.7533 10.0801 37.5245 9.95103 37.404 9.73628L34.7754 5.03315H17.1278L15.2825 8.7155H21.5862C21.9455 8.7155 22.2359 9.00635 22.2359 9.36517C22.2359 9.72353 21.9455 10.0148 21.5862 10.0148H14.2644C14.2529 10.0155 14.2413 10.0158 14.2297 10.0158L12.8795 10.0163C12.4795 10.0163 12.0971 10.1423 11.7746 10.3806C11.2853 10.7417 11.0048 11.2998 11.0048 11.9109C11.0048 12.4206 11.2028 12.899 11.5616 13.2578C11.9083 13.6031 12.3656 13.7972 12.8502 13.8044H39.2136ZM17.7412 46.5365C17.7988 46.8978 18.1097 47.1641 18.4755 47.1656L33.7806 47.2279C34.1473 47.2294 34.4609 46.9643 34.5204 46.6024L39.5574 15.9717C39.6322 15.5171 39.2814 15.1039 38.8206 15.1039H13.6029C13.1436 15.1039 12.7932 15.5146 12.8655 15.9682L17.7412 46.5365Z" fill="#0F0F0F"/>
<path d="M41.1273 14.4349L40.8197 14.0407L40.6656 14.1609L40.6339 14.3538L41.1273 14.4349ZM39.1594 8.71788V8.21788H39.1487L39.138 8.21833L39.1594 8.71788ZM38.3443 8.75276L37.9079 8.99668L38.0581 9.26547L38.3657 9.2523L38.3443 8.75276ZM35.7257 4.06691L36.1622 3.823L36.1619 3.82238L35.7257 4.06691ZM16.1472 4.09273L16.5943 4.31674L16.5946 4.31597L16.1472 4.09273ZM13.83 8.71699V9.21699H14.1387L14.277 8.941L13.83 8.71699ZM11.0025 9.33585L10.7056 8.93355L10.7054 8.93368L11.0025 9.33585ZM10.6446 14.1767L10.291 14.5302L10.2915 14.5306L10.6446 14.1767ZM11.3502 14.7093L11.844 14.6305L11.8057 14.3903L11.593 14.2722L11.3502 14.7093ZM16.6336 47.8318L16.1399 47.9105L16.1399 47.9105L16.6336 47.8318ZM17.3679 48.4608L17.37 47.9608L17.37 47.9608L17.3679 48.4608ZM34.8835 48.5318L34.8856 48.0318L34.8856 48.0318L34.8835 48.5318ZM35.6233 47.9063L35.13 47.8252L35.13 47.8252L35.6233 47.9063ZM39.2136 13.8044V14.3045L39.2211 14.3044L39.2136 13.8044ZM39.1853 10.0163V9.51627H39.1743L39.1634 9.51675L39.1853 10.0163ZM37.9988 10.0684L37.9769 9.56884L37.9749 9.56894L37.9988 10.0684ZM37.404 9.73628L36.9675 9.98022L36.9679 9.98097L37.404 9.73628ZM34.7754 5.03315L35.2118 4.78921L35.0687 4.53315H34.7754V5.03315ZM17.1278 5.03315V4.53315H16.8191L16.6808 4.80915L17.1278 5.03315ZM15.2825 8.7155L14.8355 8.49149L14.4727 9.2155H15.2825V8.7155ZM14.2644 10.0148V9.51485H14.2512L14.2379 9.51555L14.2644 10.0148ZM14.2297 10.0158L14.2297 9.51577L14.2295 9.51577L14.2297 10.0158ZM12.8795 10.0163L12.8795 10.5163L12.8797 10.5163L12.8795 10.0163ZM11.7746 10.3806L12.0715 10.7829L12.0717 10.7827L11.7746 10.3806ZM11.5616 13.2578L11.2081 13.6114L11.2088 13.6121L11.5616 13.2578ZM12.8502 13.8044L12.8427 14.3044H12.8502V13.8044ZM18.4755 47.1656L18.4776 46.6656L18.4776 46.6656L18.4755 47.1656ZM17.7412 46.5365L17.2475 46.6153L17.2475 46.6153L17.7412 46.5365ZM33.7806 47.2279L33.7785 47.7279L33.7785 47.7279L33.7806 47.2279ZM34.5204 46.6024L35.0137 46.6836L35.0137 46.6836L34.5204 46.6024ZM39.5574 15.9717L39.064 15.8906L39.064 15.8906L39.5574 15.9717ZM12.8655 15.9682L12.3718 16.0469L12.3718 16.0469L12.8655 15.9682ZM41.8597 11.9109C41.8597 12.776 41.4526 13.5469 40.8197 14.0407L41.4348 14.8292C42.3003 14.1539 42.8597 13.0969 42.8597 11.9109H41.8597ZM39.1598 9.21788C40.6603 9.21788 41.8597 10.4259 41.8597 11.9109H42.8597C42.8597 9.87409 41.213 8.21788 39.1598 8.21788V9.21788ZM39.1594 9.21788H39.1598V8.21788H39.1594V9.21788ZM38.3657 9.2523L39.1808 9.21742L39.138 8.21833L38.323 8.25322L38.3657 9.2523ZM35.2893 4.31083L37.9079 8.99668L38.7808 8.50885L36.1622 3.823L35.2893 4.31083ZM35.1585 4.23438C35.2124 4.23438 35.2628 4.26369 35.2896 4.31145L36.1619 3.82238C35.9585 3.45969 35.5749 3.23438 35.1585 3.23438V4.23438ZM16.7281 4.23438H35.1585V3.23438H16.7281V4.23438ZM16.5946 4.31597C16.6192 4.26666 16.6702 4.23438 16.7281 4.23438V3.23438C16.293 3.23438 15.8945 3.47935 15.6998 3.86949L16.5946 4.31597ZM14.277 8.941L16.5943 4.31674L15.7002 3.86873L13.3829 8.49299L14.277 8.941ZM12.8804 9.21699H13.83V8.21699H12.8804V9.21699ZM11.2994 9.73816C11.762 9.39678 12.3068 9.21699 12.8804 9.21699V8.21699C12.0921 8.21699 11.3394 8.46578 10.7056 8.93355L11.2994 9.73816ZM10.2068 11.9105C10.2068 11.0558 10.6164 10.2427 11.2996 9.73803L10.7054 8.93368C9.76576 9.62781 9.20679 10.7401 9.20679 11.9105H10.2068ZM10.9981 13.8231C10.4868 13.3118 10.2068 12.6349 10.2068 11.9105H9.20679C9.20679 12.8996 9.59179 13.831 10.291 14.5302L10.9981 13.8231ZM11.593 14.2722C11.3783 14.1529 11.178 14.0025 10.9977 13.8227L10.2915 14.5306C10.5368 14.7754 10.8113 14.9819 11.1075 15.1464L11.593 14.2722ZM10.8565 14.788L16.1399 47.9105L17.1274 47.753L11.844 14.6305L10.8565 14.788ZM16.1399 47.9105C16.2361 48.5137 16.7551 48.9584 17.3659 48.9608L17.37 47.9608C17.2491 47.9603 17.1464 47.8724 17.1274 47.753L16.1399 47.9105ZM17.3659 48.9608L34.8815 49.0318L34.8856 48.0318L17.37 47.9608L17.3659 48.9608ZM34.8815 49.0318C35.4939 49.0343 36.0174 48.5917 36.1167 47.9874L35.13 47.8252C35.1103 47.9447 35.0067 48.0323 34.8856 48.0318L34.8815 49.0318ZM36.1167 47.9874L41.6206 14.5161L40.6339 14.3538L35.13 47.8252L36.1167 47.9874ZM39.2211 14.3044C40.5192 14.2849 41.5591 13.2144 41.5591 11.9109H40.5591C40.5591 12.6769 39.9489 13.2933 39.2061 13.3045L39.2211 14.3044ZM41.5591 11.9109C41.5591 10.5959 40.5001 9.51627 39.1853 9.51627V10.5163C39.9372 10.5163 40.5591 11.1375 40.5591 11.9109H41.5591ZM39.1634 9.51675L37.9769 9.56885L38.0207 10.5679L39.2072 10.5158L39.1634 9.51675ZM37.9749 9.56894C37.9222 9.57147 37.8696 9.54439 37.84 9.49158L36.9679 9.98097C37.1793 10.3577 37.5843 10.5888 38.0228 10.5678L37.9749 9.56894ZM37.8404 9.49234L35.2118 4.78921L34.3389 5.27709L36.9675 9.98022L37.8404 9.49234ZM34.7754 4.53315H17.1278V5.53315H34.7754V4.53315ZM16.6808 4.80915L14.8355 8.49149L15.7295 8.9395L17.5748 5.25716L16.6808 4.80915ZM21.5862 8.2155H15.2825V9.2155H21.5862V8.2155ZM22.7359 9.36517C22.7359 8.73044 22.2219 8.2155 21.5862 8.2155V9.2155C21.6691 9.2155 21.7359 9.28227 21.7359 9.36517H22.7359ZM21.5862 10.5148C22.2221 10.5148 22.7359 9.99921 22.7359 9.36517H21.7359C21.7359 9.44785 21.6689 9.51485 21.5862 9.51485V10.5148ZM14.2644 10.5148H21.5862V9.51485H14.2644V10.5148ZM14.2379 9.51555C14.2352 9.5157 14.2325 9.51577 14.2297 9.51577V10.5158C14.2502 10.5158 14.2706 10.5152 14.2909 10.5141L14.2379 9.51555ZM14.2295 9.51577L12.8793 9.51633L12.8797 10.5163L14.2299 10.5158L14.2295 9.51577ZM12.8795 9.51633C12.3724 9.51633 11.8859 9.67667 11.4775 9.97843L12.0717 10.7827C12.3083 10.6079 12.5866 10.5163 12.8795 10.5163V9.51633ZM11.4777 9.97827C10.8597 10.4343 10.5048 11.1423 10.5048 11.9109H11.5048C11.5048 11.4574 11.7109 11.049 12.0714 10.7829L11.4777 9.97827ZM10.5048 11.9109C10.5048 12.5528 10.7552 13.1585 11.2081 13.6114L11.9152 12.9043C11.6504 12.6396 11.5048 12.2885 11.5048 11.9109H10.5048ZM11.2088 13.6121C11.6463 14.0479 12.227 14.2951 12.8427 14.3044L12.8578 13.3045C12.5042 13.2992 12.1703 13.1584 11.9145 12.9036L11.2088 13.6121ZM39.2136 13.3044H12.8502V14.3044H39.2136V13.3044ZM18.4776 46.6656C18.3567 46.6651 18.254 46.5771 18.235 46.4578L17.2475 46.6153C17.3437 47.2185 17.8627 47.6631 18.4735 47.6656L18.4776 46.6656ZM33.7826 46.7279L18.4776 46.6656L18.4735 47.6656L33.7785 47.7279L33.7826 46.7279ZM34.027 46.5213C34.0073 46.6409 33.9038 46.7284 33.7826 46.7279L33.7785 47.7279C34.3909 47.7304 34.9144 47.2878 35.0137 46.6836L34.027 46.5213ZM39.064 15.8906L34.027 46.5213L35.0137 46.6836L40.0508 16.0529L39.064 15.8906ZM38.8206 15.6039C38.9728 15.6039 39.0887 15.7404 39.064 15.8906L40.0508 16.0529C40.1756 15.2938 39.5899 14.6039 38.8206 14.6039V15.6039ZM13.6029 15.6039H38.8206V14.6039H13.6029V15.6039ZM13.3593 15.8894C13.3354 15.7396 13.4512 15.6039 13.6029 15.6039V14.6039C12.836 14.6039 12.251 15.2897 12.3718 16.0469L13.3593 15.8894ZM18.235 46.4578L13.3593 15.8894L12.3718 16.0469L17.2475 46.6153L18.235 46.4578ZM27.6004 9.51485H24.7902V10.5148H27.6004V9.51485ZM27.75 9.36517C27.75 9.44785 27.683 9.51485 27.6004 9.51485V10.5148C28.2362 10.5148 28.75 9.99921 28.75 9.36517H27.75ZM27.6004 9.2155C27.6833 9.2155 27.75 9.28227 27.75 9.36517H28.75C28.75 8.73044 28.236 8.2155 27.6004 8.2155V9.2155ZM24.7902 9.2155H27.6004V8.2155H24.7902V9.2155ZM24.6405 9.36517C24.6405 9.2825 24.7075 9.2155 24.7902 9.2155V8.2155C24.1543 8.2155 23.6405 8.73113 23.6405 9.36517H24.6405ZM24.7902 9.51485C24.7073 9.51485 24.6405 9.44808 24.6405 9.36517H23.6405C23.6405 9.99991 24.1545 10.5148 24.7902 10.5148V9.51485ZM30.7438 10.5148H31.6055V9.51485H30.7438V10.5148ZM29.5942 9.36517C29.5942 9.99991 30.1082 10.5148 30.7438 10.5148V9.51485C30.6609 9.51485 30.5942 9.44808 30.5942 9.36517H29.5942ZM30.7438 8.2155C30.108 8.2155 29.5942 8.73113 29.5942 9.36517H30.5942C30.5942 9.2825 30.6612 9.2155 30.7438 9.2155V8.2155ZM31.6055 8.2155H30.7438V9.2155H31.6055V8.2155ZM32.7552 9.36517C32.7552 8.73043 32.2412 8.2155 31.6055 8.2155V9.2155C31.6884 9.2155 31.7552 9.28227 31.7552 9.36517H32.7552ZM31.6055 10.5148C32.2414 10.5148 32.7552 9.99921 32.7552 9.36517H31.7552C31.7552 9.44784 31.6882 9.51485 31.6055 9.51485V10.5148Z" fill="#0F0F0F" mask="url(#path-2-outside-1_2813_39659)"/>
</svg>
