<svg width="48" height="48" viewBox="0 0 48 48" fill="none" xmlns="http://www.w3.org/2000/svg">
<path d="M40.8714 16.7917H22.0754L20.1453 12.5962H20.5232C20.9847 12.5962 21.3622 12.2186 21.3622 11.7571V7.56156C21.3622 7.10003 20.9847 6.72266 20.5232 6.72266H10.4539C9.99238 6.72266 9.61487 7.10006 9.61487 7.56156V11.7571C9.61487 12.2186 9.9924 12.5962 10.4539 12.5962H10.8314L6.76206 21.4907C6.76206 21.5325 6.76206 21.5325 6.72021 21.5746V21.6586V21.7426V21.8266V41.1261C6.72021 41.5876 7.09774 41.9652 7.55924 41.9652H21.908C22.7052 43.4756 24.2996 44.4826 26.1035 44.4826H26.9847C27.656 44.4826 28.3274 44.3568 28.9566 44.0629C29.5858 44.3146 30.2153 44.4826 30.9285 44.4826H31.8097C33.6558 44.4826 35.2502 43.4756 36.0052 41.9652H40.9558C41.4173 41.9652 41.7948 41.5876 41.7948 41.1261L41.7945 23.8397C43.3468 23.4622 44.5215 22.0358 44.5215 20.3574C44.4378 18.3855 42.8434 16.7912 40.8714 16.7912L40.8714 16.7917Z" fill="#FCC23F"/>
<path d="M39.2713 15.1902H20.4753L18.5452 10.9947H18.9231C19.3846 10.9947 19.7621 10.6172 19.7621 10.1557V5.96012C19.7621 5.4986 19.3846 5.12109 18.9231 5.12109H8.8538C8.39228 5.12109 8.01477 5.49862 8.01477 5.96012V10.1557C8.01477 10.6172 8.3923 10.9947 8.8538 10.9947H9.23133L5.16197 19.8892C5.16197 19.9311 5.16197 19.9311 5.12012 19.9732V20.0572V20.1412V20.2252V39.5246C5.12012 39.9861 5.49765 40.3636 5.95915 40.3636H20.3079C21.1051 41.874 22.6995 42.8811 24.5034 42.8811H25.3846C26.0559 42.8811 26.7273 42.7553 27.3565 42.4614C27.9857 42.7131 28.6152 42.8811 29.3284 42.8811H30.2096C32.0557 42.8811 33.6501 41.8741 34.4051 40.3636H39.3557C39.8172 40.3636 40.1947 39.9861 40.1947 39.5246L40.1944 22.2383C41.7467 21.8607 42.9214 20.4343 42.9214 18.756C42.8377 16.7841 41.2433 15.1896 39.2713 15.1896L39.2713 15.1902ZM9.69283 8.05789C9.69283 7.36271 10.2564 6.79915 10.9516 6.79915H16.8252C17.5203 6.79915 18.0839 7.36271 18.0839 8.05789C18.0839 8.75307 17.5203 9.31662 16.8252 9.31662H10.9516C10.2564 9.31662 9.69283 8.75307 9.69283 8.05789ZM19.762 34.9093V38.2658V38.6854L6.75589 38.6851V24.9658L8.85365 23.9588L8.93764 23.9169C9.90254 23.4554 10.9514 23.2877 12.0003 23.4554C12.5458 23.5394 13.0492 23.6652 13.5526 23.9169C15.4827 24.8399 17.6641 24.8399 19.5942 23.9169C20.2737 23.5869 21.0644 24.081 21.0657 24.8363L21.0781 31.7927C20.4413 32.1673 19.762 33.7273 19.762 34.9093ZM21.0208 21.3576L18.923 22.3646L18.839 22.4065C17.8741 22.868 16.8252 23.0357 15.7763 22.868C15.2308 22.784 14.7275 22.6582 14.2241 22.4065C12.294 21.4835 10.1125 21.4835 8.18243 22.4065L6.75573 23.0778V20.3927L6.83972 20.225L11.0771 10.9948H16.6991L20.9365 20.225L21.0205 20.3927L21.0208 21.3576ZM33.1878 38.2656C33.1878 39.9019 31.8033 41.2024 30.1251 41.2024H29.2439C28.6984 41.2024 28.1531 41.0766 27.6916 40.7827C27.5658 40.6987 27.44 40.6987 27.272 40.6987C27.1043 40.6987 26.9781 40.7406 26.8523 40.7827C26.3908 41.0344 25.8453 41.2024 25.3 41.2024H24.4188C22.7408 41.2024 21.3562 39.9019 21.3562 38.2656V34.9091C21.3562 33.2729 22.7407 31.9723 24.4188 31.9723H25.3C25.3361 31.9723 25.3722 31.9731 25.4083 31.9746C26.0341 32.0006 26.4329 32.6047 26.4329 33.231C26.4329 33.6926 26.8104 34.0701 27.2719 34.0701C27.7334 34.0701 28.111 33.6925 28.111 33.231C28.111 32.6001 28.5038 31.9963 29.1343 31.9742C29.1705 31.973 29.207 31.9723 29.2438 31.9723H30.125C31.8031 31.9723 33.1877 33.2729 33.1877 34.9091L33.1878 38.2656ZM39.2712 20.6444C38.8097 20.6444 38.4322 21.0219 38.4322 21.4834V38.6851H34.8661V38.2654V34.9089C34.8661 32.3496 32.7265 30.2937 30.1251 30.2937H29.2439C28.8664 30.2937 28.4889 30.3355 28.111 30.4195L28.1113 29.4549C28.1113 28.5319 28.8664 27.7769 29.7894 27.7769C30.2509 27.7769 30.6284 27.3993 30.6284 26.9378C30.6284 26.4763 30.2509 26.0988 29.7894 26.0988C27.9433 26.0988 26.4329 27.6092 26.4329 29.4553V30.4202C26.0554 30.3362 25.6779 30.2944 25.3 30.2944H24.4188C23.7896 30.2944 23.1601 30.4202 22.6149 30.63V20.2251V20.1411V20.0571V19.9732C22.6149 19.9313 22.6149 19.9313 22.573 19.8892L21.2306 16.8687H39.2714C40.3203 16.8687 41.1593 17.7077 41.1593 18.7566C41.1593 19.8055 40.32 20.6445 39.2711 20.6445L39.2712 20.6444Z" fill="black"/>
</svg>
