<svg width="56" height="56" viewBox="0 0 56 56" fill="none" xmlns="http://www.w3.org/2000/svg">
<path d="M21.4354 23.9693L21.3778 23.9117C20.974 24.2 20.5701 24.3155 20.1087 24.3731C19.3011 24.4886 18.5513 24.2576 17.8592 23.7386C17.2247 23.2195 16.8209 22.4695 16.7633 21.7197C16.6478 20.97 16.8788 20.1623 17.3978 19.5278C17.8593 18.9509 18.4362 18.605 19.0704 18.4895C19.128 18.4319 19.1859 18.4319 19.2435 18.4319V18.2588C19.2435 17.6243 19.4742 16.9897 19.8781 16.4131C20.455 15.7786 21.1471 15.4327 21.9545 15.3172C22.7042 15.2596 23.5119 15.4903 24.1464 16.0094L24.204 16.0669C24.8961 16.586 25.2999 17.2781 25.3575 18.0281C25.3575 18.4895 25.2999 18.9509 25.1268 19.4123L26.338 20.3927C28.472 19.2392 30.7794 18.4895 33.0864 18.3163H33.2596C37.9893 18.6626 42.6038 21.4311 46.0647 25.1225C48.0258 27.1413 49.6408 29.5059 50.7368 31.9286C51.8327 34.3512 52.4094 36.8314 52.2365 39.0233C52.121 41.0997 51.3713 42.9453 49.8715 44.3875C49.6984 44.5606 49.4101 44.6758 49.1218 44.6758H17.2251C16.9368 44.6758 16.7061 44.6182 16.533 44.3875C14.9756 42.9457 14.168 41.0996 14.0528 39.0809C13.8796 37.2352 14.2259 35.1588 15.0911 33.0821L14.7448 32.9089C14.2258 32.6206 13.7644 32.3899 13.5337 32.1592C13.0723 31.813 12.8416 31.4095 13.0147 31.0057L12.1494 30.3135C11.7456 30.5442 11.2842 30.7173 10.8228 30.7749C10.0731 30.8325 9.26536 30.6594 8.63087 30.1404H8.57328V30.0828C7.93874 29.6214 7.59287 28.8717 7.47737 28.1217C7.41977 27.314 7.59289 26.5643 8.1119 25.9298L8.16949 25.8722C8.57332 25.3532 9.14989 25.0069 9.7269 24.8918L9.78449 24.8342H9.95761V24.6611C9.95761 24.0265 10.1883 23.3344 10.6497 22.8154C11.1687 22.1809 11.9188 21.7771 12.6686 21.7195C13.4183 21.6619 14.226 21.835 14.8605 22.354H14.9181V22.4116H14.9757C15.6102 22.9886 16.014 23.6807 16.0716 24.4304C16.1292 24.8919 16.014 25.3533 15.8409 25.8147C16.4178 26.2761 17.5134 27.1989 18.1479 27.6027C19.0707 26.3337 20.2243 25.0649 21.4358 23.969L21.4354 23.9693Z" fill="#FCC23F"/>
<path d="M20.8167 17.7546L19.4901 16.6587C19.0862 16.3125 18.971 15.7359 19.3169 15.2745H19.3745V15.2169C19.6052 14.9862 19.6628 14.6979 19.6628 14.4672C19.6628 14.2941 19.4897 14.0058 19.2014 13.7751C18.9707 13.6019 18.6824 13.4868 18.3938 13.5443C18.1055 13.5443 17.8748 13.7175 17.7016 13.9482C17.5285 14.1213 17.4709 14.352 17.4133 14.5827C17.4133 14.8134 17.5289 15.0441 17.644 15.2172C17.9903 15.6787 17.8747 16.2556 17.4709 16.6015C17.1247 16.8322 16.7212 16.8322 16.4326 16.6591C16.2019 16.6015 15.9712 16.6015 15.7981 16.6015C15.5673 16.6591 15.3366 16.8322 15.1635 17.0053C14.9904 17.236 14.9328 17.5243 14.9328 17.755C14.9904 18.0433 15.1059 18.274 15.3366 18.5047C15.5673 18.6779 15.8556 18.7355 16.1443 18.7355C16.4326 18.6779 16.6633 18.5623 16.8364 18.3316C16.894 18.274 16.9519 18.2161 16.9519 18.2161C17.2982 17.8699 17.8748 17.8699 18.221 18.1585L19.2014 18.9082C19.7204 18.5044 20.2401 18.1006 20.8167 17.7546ZM17.702 20.2349L17.6444 20.1773C17.2406 20.4656 16.8367 20.5811 16.3753 20.6387C15.5677 20.7542 14.8179 20.5232 14.1258 20.0042C13.4913 19.4852 13.0875 18.7351 13.0299 17.9854C12.9144 17.2356 13.1454 16.4279 13.6644 15.7935C14.1259 15.2165 14.7028 14.8706 15.337 14.7551C15.3946 14.6975 15.4525 14.6975 15.5101 14.6975V14.5244C15.5101 13.8899 15.7408 13.2553 16.1447 12.6788C16.7216 12.0442 17.4137 11.6984 18.2211 11.5828C18.9708 11.5253 19.7785 11.756 20.413 12.275L20.4706 12.3326C21.1627 12.8516 21.5665 13.5437 21.6241 14.2937C21.6241 14.7551 21.5665 15.2165 21.3934 15.678L22.6046 16.6584C24.7386 15.5048 27.046 14.7551 29.353 14.582H29.5262C34.2559 14.9282 38.8704 17.6967 42.3313 21.3881C44.2924 23.4069 45.9074 25.7715 47.0034 28.1942C48.0993 30.6169 48.676 33.097 48.5031 35.2889C48.3876 37.3653 47.6379 39.211 46.1382 40.6531C45.965 40.8263 45.6767 40.9414 45.3884 40.9414H13.4917C13.2034 40.9414 12.9727 40.8838 12.7996 40.6531C11.2422 39.2113 10.4346 37.3652 10.3194 35.3465C10.1462 33.5008 10.4925 31.4244 11.3577 29.3477L11.0114 29.1746C10.4924 28.8863 10.031 28.6556 9.80029 28.4248C9.33887 28.0786 9.10816 27.6751 9.28128 27.2713L8.41604 26.5791C8.01221 26.8099 7.55079 26.983 7.08938 27.0406C6.33965 27.0982 5.53197 26.925 4.89747 26.406H4.83988V26.3484C4.20535 25.887 3.85947 25.1373 3.74397 24.3873C3.68637 23.5796 3.85949 22.8299 4.3785 22.1954L4.43609 22.1378C4.83992 21.6188 5.4165 21.2725 5.9935 21.1574L6.05109 21.0998H6.22421V20.9267C6.22421 20.2921 6.45492 19.6 6.91634 19.081C7.43535 18.4465 8.18542 18.0427 8.93516 17.9851C9.6849 17.9275 10.4926 18.1006 11.1271 18.6196H11.1847V18.6772H11.2423C11.8768 19.2542 12.2806 19.9463 12.3382 20.6961C12.3958 21.1575 12.2806 21.6189 12.1075 22.0803C12.6844 22.5417 13.78 23.4645 14.4145 23.8684C15.3373 22.5993 16.4909 21.3306 17.7024 20.2346L17.702 20.2349ZM11.588 24.1569L10.2038 23.061C9.79996 22.7148 9.74237 22.0806 10.0883 21.6768V21.6192C10.319 21.3309 10.4345 21.1002 10.4345 20.8695C10.3769 20.6388 10.2614 20.408 9.97308 20.1773H9.91549C9.68478 20.0042 9.39648 19.889 9.16576 19.9466C8.87746 19.9466 8.58882 20.0622 8.41604 20.2929C8.24292 20.5236 8.18533 20.7543 8.18533 20.985C8.18533 21.2157 8.24293 21.4464 8.41604 21.6195C8.70434 22.0234 8.64675 22.6579 8.18533 23.0038C7.89703 23.1769 7.49321 23.2345 7.20493 23.0614C6.97422 23.0038 6.74351 22.9458 6.5128 23.0038C6.28209 23.0614 6.05138 23.1769 5.93586 23.4076C5.76274 23.6383 5.64755 23.869 5.70515 24.1573C5.70515 24.4456 5.87827 24.6763 6.05139 24.8494H6.10898C6.33969 25.0802 6.62799 25.1377 6.8587 25.0802C7.14701 25.0802 7.43565 24.907 7.60843 24.6763C7.95467 24.2725 8.58883 24.2149 8.99267 24.5608L10.3769 25.6567L11.588 24.1569ZM13.0875 25.3105L11.5878 27.2716L11.934 27.5023C12.2802 27.6755 12.6261 27.9062 13.0299 28.1369H13.0875C14.8756 29.2328 17.1251 30.8478 17.471 32.809C17.5865 33.6167 18.8552 34.8278 20.5281 35.7507C21.5085 36.2697 22.6621 36.7311 23.758 36.8466C24.8539 36.9621 25.892 36.8466 26.8152 36.3276C27.9111 35.693 28.8916 34.4243 29.4685 32.29C29.8147 30.9633 29.9299 29.925 29.8147 29.0601C29.584 27.7335 28.8919 26.8682 27.9115 26.3492C26.8156 25.7147 25.4313 25.484 23.9894 25.4264C21.6824 25.3688 19.4329 25.8302 18.3945 26.234C16.8371 26.811 15.4528 26.5223 14.4145 26.0609C14.299 26.0609 14.2414 26.0033 14.1838 26.0033C13.78 25.7726 13.3761 25.5419 13.0879 25.3112L13.0875 25.3105ZM16.3174 24.6183C16.7212 24.6183 17.2402 24.6183 17.7016 24.3876C18.8552 23.9838 21.451 23.4072 24.0463 23.5224C25.7768 23.58 27.4494 23.8686 28.8336 24.6183C30.3334 25.4835 31.4294 26.7523 31.7177 28.7711C31.8908 29.9247 31.7753 31.2513 31.3715 32.8087C30.6217 35.5196 29.2951 37.1345 27.7377 38.0574C26.4111 38.8071 24.9693 38.9802 23.527 38.8071C22.1428 38.634 20.7585 38.115 19.547 37.4229C17.4131 36.2117 15.7977 34.4812 15.5671 33.1546C15.3939 32.1741 14.2404 31.1934 13.0292 30.3861C12.3947 32.1166 12.1064 33.7316 12.2216 35.1734C12.315 36.339 12.6721 37.4293 13.3539 38.3529C13.669 38.7798 14.1922 38.9803 14.7228 38.9803H44.1208C44.6711 38.9803 45.2123 38.7636 45.5255 38.311C46.1583 37.3964 46.5063 36.3214 46.598 35.1734C46.7135 33.2701 46.1942 31.1358 45.2714 29.0018C44.233 26.8099 42.7336 24.6184 40.9455 22.7148C37.7732 19.3693 33.62 16.8892 29.4097 16.5433C27.2178 16.7164 25.0263 17.4661 23.0074 18.6772H22.9498C22.6615 18.8504 22.3729 19.0235 22.0846 19.1962C21.3349 19.7153 20.5849 20.2922 19.8351 20.8688L19.7775 20.9264C18.5084 22.0223 17.2973 23.2914 16.3169 24.6177L16.3174 24.6183ZM44.0039 31.2513C44.1194 31.8282 43.8308 32.3472 43.3118 32.4624C42.7928 32.578 42.2734 32.2317 42.1006 31.7127C40.5432 25.1949 34.4869 21.4454 34.4869 21.4454C34.0255 21.1571 33.91 20.5802 34.1407 20.1188C34.429 19.6574 35.0635 19.4843 35.5249 19.7725C35.5249 19.7725 42.2158 23.9253 44.0039 31.2507L44.0039 31.2513Z" fill="#0F0F0F"/>
</svg>
