<svg width="48" height="48" viewBox="0 0 48 48" fill="none" xmlns="http://www.w3.org/2000/svg">
<circle cx="25.0452" cy="25.0447" r="19.115" fill="#FCC23F"/>
<mask id="path-2-inside-1_2778_24377" fill="white">
<path d="M42.3902 23.2752C42.3902 33.8321 33.8321 42.3902 23.2752 42.3902C12.7183 42.3902 4.16016 33.8321 4.16016 23.2752C4.16016 12.7183 12.7183 4.16016 23.2752 4.16016C33.8321 4.16016 42.3902 12.7183 42.3902 23.2752Z"/>
</mask>
<path d="M40.3902 23.2752C40.3902 32.7276 32.7276 40.3902 23.2752 40.3902V44.3902C34.9367 44.3902 44.3902 34.9367 44.3902 23.2752H40.3902ZM23.2752 40.3902C13.8228 40.3902 6.16016 32.7276 6.16016 23.2752H2.16016C2.16016 34.9367 11.6137 44.3902 23.2752 44.3902V40.3902ZM6.16016 23.2752C6.16016 13.8228 13.8228 6.16016 23.2752 6.16016V2.16016C11.6137 2.16016 2.16016 11.6137 2.16016 23.2752H6.16016ZM23.2752 6.16016C32.7276 6.16016 40.3902 13.8228 40.3902 23.2752H44.3902C44.3902 11.6137 34.9367 2.16016 23.2752 2.16016V6.16016Z" fill="#0F0F0F" mask="url(#path-2-inside-1_2778_24377)"/>
<path d="M17.2575 16.9023C16.4845 16.9023 15.8418 17.545 15.8418 18.3183C15.8418 19.0913 16.4845 19.7342 17.2577 19.7342C18.0307 19.7342 18.6737 19.0915 18.6737 18.3183C18.6737 17.5453 18.031 16.9023 17.2577 16.9023H17.2575Z" fill="black"/>
<path d="M29.3632 16.9023C28.5902 16.9023 27.9473 17.545 27.9473 18.3183C27.9473 19.0913 28.5899 19.7342 29.3632 19.7342C30.1362 19.7342 30.7791 19.0915 30.7791 18.3183C30.7791 17.5453 30.1365 16.9023 29.3632 16.9023Z" fill="black"/>
<path d="M32.4207 29.3834C33.0714 28.3917 32.3674 27.4498 31.4781 27.4854C31.0722 27.5016 30.7184 27.7745 30.4959 28.1094C28.8728 30.5494 26.0703 31.7732 23.2747 31.7732C20.4789 31.7732 17.6764 30.5497 16.0536 28.1094C15.8311 27.7748 15.4773 27.5017 15.0714 27.4854C14.1821 27.4498 13.4781 28.3917 14.1288 29.3834C16.2065 32.55 19.753 34.1092 23.2744 34.1092C26.7966 34.1092 30.3428 32.55 32.4201 29.3834H32.4207Z" fill="black"/>
</svg>
