<svg width="56" height="56" viewBox="0 0 56 56" fill="none" xmlns="http://www.w3.org/2000/svg">
<path fill-rule="evenodd" clip-rule="evenodd" d="M37.5145 19.1709L43.5695 7.91924C43.7943 7.50101 44.3125 7.34618 44.7272 7.57359C45.1416 7.801 45.2949 8.32433 45.0694 8.7429L39.5135 19.0673C40.5038 18.4498 41.6726 18.0927 42.9231 18.0927C46.4866 18.0927 49.3856 20.9917 49.3856 24.5552C49.3856 25.1901 49.291 25.8185 49.1073 26.4198H50.3094C51.3278 26.4198 52.1559 27.2479 52.1559 28.2663V31.9593C52.1556 32.9777 51.3274 33.8059 50.309 33.8059H50.0711L46.3089 46.347C45.2463 49.889 42.0479 52.2686 38.3501 52.2686H21.6432C17.9451 52.2686 14.747 49.889 13.6844 46.347L9.92225 33.8059H9.68661C8.66823 33.8059 7.84009 32.9777 7.84009 31.9593V28.2663C7.84009 27.2479 8.66825 26.4198 9.68661 26.4198H10.8885C10.7048 25.8183 10.61 25.1899 10.61 24.5552C10.61 20.9918 13.509 18.0927 17.0725 18.0927C19.0535 18.0927 20.8291 18.9886 22.0155 20.3965C23.0197 16.9366 26.2178 14.4002 29.9971 14.4002C33.314 14.4002 36.1832 16.3539 37.5145 19.1709Z" fill="#17AF47"/>
<path d="M41.1141 3.62005L41.114 3.62C40.5766 3.32533 39.9061 3.52684 39.6159 4.0664C39.6159 4.06643 39.6159 4.06646 39.6159 4.06649L33.7875 14.8972C32.3366 12.2307 29.5086 10.4158 26.2637 10.4158C22.5251 10.4158 19.3397 12.8248 18.1763 16.1712C16.9546 14.9007 15.2377 14.1083 13.3391 14.1083C9.63755 14.1083 6.62661 17.1194 6.62661 20.8209C6.62661 21.3676 6.69427 21.9099 6.82617 22.4354H5.95321C4.79678 22.4354 3.85669 23.3755 3.85669 24.5319V28.225C3.85669 29.3814 4.79676 30.3215 5.95321 30.3215H6.00284L9.71157 42.6844L9.94692 42.6138L9.71157 42.6844C10.8059 46.3322 14.1013 48.7843 17.9098 48.7843H34.6167C38.4249 48.7843 41.7206 46.3322 42.8149 42.6844L46.5237 30.3215H46.5756C47.7321 30.3215 48.6721 29.3814 48.6725 28.2251V28.225V24.5319C48.6725 23.3755 47.7324 22.4354 46.576 22.4354H45.7028C45.8346 21.91 45.9022 21.3677 45.9022 20.8209C45.9022 17.1193 42.8913 14.1083 39.1897 14.1083C38.1931 14.1083 37.2463 14.3267 36.3948 14.7182L41.5561 5.12709C41.5561 5.12706 41.5562 5.12703 41.5562 5.127C41.8461 4.58863 41.6499 3.91408 41.1141 3.62005ZM43.5565 20.8208C43.5565 21.3775 43.4485 21.9256 43.2407 22.4354H35.1395C34.9319 21.9249 34.8239 21.3768 34.8239 20.8208C34.8239 18.4134 36.7831 16.4545 39.1902 16.4545C41.5976 16.4545 43.5565 18.4138 43.5565 20.8208ZM11.9592 42.0105L11.7197 42.0823L11.9592 42.0105L8.45255 30.3215H44.0736L40.5669 42.0105C39.7725 44.6591 37.3821 46.4376 34.6165 46.4376H17.9096C15.144 46.4376 12.7536 44.6591 11.9592 42.0105ZM9.28848 22.4354C9.08061 21.9249 8.97258 21.3769 8.97258 20.8208C8.97258 18.4134 10.9319 16.4545 13.3389 16.4545C15.7463 16.4545 17.7053 18.4138 17.7053 20.8208C17.7053 21.3775 17.5972 21.9255 17.3897 22.4354H9.28848ZM8.56607 24.7823L46.326 24.7846V27.975H45.7243C45.7001 27.9735 45.6758 27.9727 45.6513 27.9727H6.87518C6.85075 27.9727 6.82642 27.9735 6.80221 27.975H6.20321V24.7819L8.54657 24.7821L8.56607 24.7823ZM32.4772 18.9749C32.4772 20.2033 32.1066 21.4135 31.4242 22.4354H21.1055C20.4227 21.4135 20.0522 20.2033 20.0522 18.9749C20.0522 15.5495 22.8392 12.7624 26.2647 12.7624C29.6901 12.7624 32.4772 15.5496 32.4772 18.9749Z" fill="#0F0F0F" stroke="#0F0F0F" stroke-width="0.5"/>
</svg>
