<svg width="120" height="120" viewBox="0 0 120 120" fill="none" xmlns="http://www.w3.org/2000/svg">
<path d="M56.5381 35.9314C58.0786 33.2697 61.9214 33.2697 63.4619 35.9314L94.1751 88.9963C95.7186 91.6629 93.7943 95 90.7132 95H29.2868C26.2057 95 24.2814 91.6629 25.8249 88.9963L56.5381 35.9314ZM63.4617 15.9793C61.921 13.3182 58.079 13.3182 56.5383 15.9793L8.47609 98.9959C6.93223 101.663 8.85646 105 11.9378 105H108.062C111.144 105 113.068 101.663 111.524 98.9959L63.4617 15.9793ZM65 84C65 81.7909 63.2091 80 61 80H59C56.7909 80 55 81.7909 55 84V86C55 88.2091 56.7909 90 59 90H61C63.2091 90 65 88.2091 65 86V84ZM65 54C65 51.7909 63.2091 50 61 50H59C56.7909 50 55 51.7909 55 54V66C55 68.2091 56.7909 70 59 70H61C63.2091 70 65 68.2091 65 66V54Z" fill="#FCC23F"/>
</svg>
